<svg width="146" height="43" viewBox="0 0 146 43" fill="none" xmlns="http://www.w3.org/2000/svg">
<path d="M25.7599 22.3701C26.0199 22.3701 26.2199 22.5 26.3599 22.76C26.5199 23 26.5999 23.31 26.5999 23.6901C26.5999 24.15 26.5299 24.51 26.3899 24.7701C26.2499 25.03 26.0299 25.2601 25.7299 25.4601C24.5499 26.2401 22.6699 27.5201 20.0899 29.3001C19.3099 33.4401 18.2999 36.7001 17.0599 39.0801C15.8199 41.4601 14.2499 42.6501 12.3499 42.6501C11.3299 42.6501 10.4999 42.3301 9.85992 41.6901C9.21992 41.0701 8.89992 40.2501 8.89992 39.2301C8.89992 38.2901 9.10992 37.3401 9.52992 36.3801C9.94992 35.4201 10.7299 34.31 11.8699 33.05C13.0299 31.79 14.6599 30.3501 16.7599 28.7301L16.8499 28.1601C15.2699 28.8201 13.7199 29.1501 12.1999 29.1501C9.95992 29.1501 7.98992 28.7201 6.28992 27.8601C4.58992 26.9801 3.26992 25.7401 2.32992 24.1401C1.38992 22.5401 0.919922 20.68 0.919922 18.56C0.919922 15.6 1.47992 12.9901 2.59992 10.7301C3.71992 8.45005 5.25992 6.69005 7.21992 5.45005C9.19992 4.19005 11.4099 3.56005 13.8499 3.56005C16.1899 3.56005 17.9399 4.11005 19.0999 5.21005C20.2799 6.29005 20.8699 7.73005 20.8699 9.53005C20.8699 10.71 20.6499 11.66 20.2099 12.38C19.7899 13.08 19.1799 13.43 18.3799 13.43C17.8399 13.43 17.3999 13.3 17.0599 13.0401C16.7399 12.7801 16.5799 12.42 16.5799 11.96C16.5799 11.76 16.6199 11.4201 16.6999 10.94C16.8199 10.38 16.8799 9.94005 16.8799 9.62005C16.8799 8.78005 16.6199 8.13005 16.0999 7.67005C15.5999 7.21005 14.7499 6.98005 13.5499 6.98005C12.0899 6.98005 10.7299 7.40005 9.46992 8.24005C8.22992 9.08005 7.22992 10.34 6.46992 12.02C5.70992 13.68 5.32992 15.6801 5.32992 18.0201C5.32992 20.4201 5.97992 22.2801 7.27992 23.6C8.59992 24.9001 10.4999 25.5501 12.9799 25.5501C14.3599 25.5501 15.7999 25.2401 17.2999 24.6201L17.7199 20.9601H14.6599C14.0999 20.9601 13.6699 20.83 13.3699 20.57C13.0699 20.29 12.9199 19.8401 12.9199 19.2201C12.9199 18.6601 13.0699 18.2201 13.3699 17.9001C13.6699 17.5801 14.0699 17.42 14.5699 17.42H20.1799C20.6199 17.42 20.9799 17.5701 21.2599 17.8701C21.5599 18.1501 21.6799 18.56 21.6199 19.1C21.5599 19.7401 21.3599 21.1901 21.0199 23.4501L20.6899 25.7301C22.2899 24.5301 23.7499 23.4901 25.0699 22.6101C25.3299 22.4501 25.5599 22.3701 25.7599 22.3701ZM12.6799 39.7401C13.1999 39.7401 13.7699 39.1501 14.3899 37.9701C15.0099 36.7901 15.5899 34.8901 16.1299 32.2701C14.6099 33.5701 13.5099 34.7401 12.8299 35.7801C12.1699 36.8401 11.8399 37.77 11.8399 38.57C11.8399 39.35 12.1199 39.7401 12.6799 39.7401Z" fill="#3C78D8"/>
<path d="M26.5641 29.1501C25.8041 29.1501 25.2641 28.7501 24.9441 27.9501C24.6441 27.1501 24.4941 25.8701 24.4941 24.1101C24.4941 21.5101 24.8641 19.04 25.6041 16.7C25.7841 16.12 26.0741 15.7001 26.4741 15.4401C26.8941 15.1601 27.4741 15.0201 28.2141 15.0201C28.6141 15.0201 28.8941 15.07 29.0541 15.17C29.2141 15.27 29.2941 15.46 29.2941 15.74C29.2941 16.06 29.1441 16.7801 28.8441 17.9001C28.6441 18.7001 28.4841 19.4 28.3641 20C28.2441 20.6 28.1441 21.3401 28.0641 22.2201C28.7241 20.5001 29.4641 19.1001 30.2841 18.0201C31.1041 16.9401 31.9041 16.17 32.6841 15.71C33.4841 15.25 34.2141 15.0201 34.8741 15.0201C36.1741 15.0201 36.8241 15.6701 36.8241 16.9701C36.8241 17.2301 36.7341 17.8601 36.5541 18.8601C36.3941 19.6601 36.3141 20.1601 36.3141 20.3601C36.3141 21.0601 36.5641 21.41 37.0641 21.41C37.6241 21.41 38.3441 20.97 39.2241 20.09C39.4841 19.8301 39.7541 19.7001 40.0341 19.7001C40.2941 19.7001 40.4941 19.8201 40.6341 20.0601C40.7941 20.2801 40.8741 20.5801 40.8741 20.9601C40.8741 21.7001 40.6741 22.2801 40.2741 22.7001C39.7141 23.2801 39.0541 23.7801 38.2941 24.2001C37.5541 24.6001 36.7641 24.8001 35.9241 24.8001C34.8641 24.8001 34.0541 24.53 33.4941 23.99C32.9541 23.45 32.6841 22.7201 32.6841 21.8001C32.6841 21.5001 32.7141 21.2001 32.7741 20.9001C32.8141 20.5001 32.8341 20.23 32.8341 20.09C32.8341 19.77 32.7241 19.6101 32.5041 19.6101C32.2041 19.6101 31.8041 19.9501 31.3041 20.6301C30.8241 21.2901 30.3441 22.1701 29.8641 23.2701C29.3841 24.3701 28.9941 25.53 28.6941 26.75C28.4741 27.69 28.2141 28.33 27.9141 28.67C27.6341 28.99 27.1841 29.1501 26.5641 29.1501Z" fill="#3C78D8"/>
<path d="M41.7764 29.1501C40.5364 29.1501 39.5464 28.7001 38.8064 27.8001C38.0664 26.9001 37.6964 25.72 37.6964 24.26C37.6964 22.66 38.0664 21.15 38.8064 19.73C39.5464 18.29 40.5264 17.1401 41.7464 16.2801C42.9864 15.4001 44.2964 14.96 45.6764 14.96C46.1164 14.96 46.4064 15.0501 46.5464 15.2301C46.7064 15.39 46.8364 15.69 46.9364 16.13C47.3564 16.05 47.7964 16.01 48.2564 16.01C49.2364 16.01 49.7264 16.36 49.7264 17.06C49.7264 17.48 49.5764 18.4801 49.2764 20.0601C48.8164 22.3601 48.5864 23.9601 48.5864 24.8601C48.5864 25.1601 48.6564 25.4 48.7964 25.58C48.9564 25.76 49.1564 25.85 49.3964 25.85C49.7764 25.85 50.2364 25.6101 50.7764 25.1301C51.3164 24.6301 52.0464 23.8301 52.9664 22.7301C53.2064 22.4501 53.4764 22.3101 53.7764 22.3101C54.0364 22.3101 54.2364 22.43 54.3764 22.67C54.5364 22.91 54.6164 23.2401 54.6164 23.6601C54.6164 24.4601 54.4264 25.08 54.0464 25.5201C53.2264 26.5401 52.3564 27.4 51.4364 28.1C50.5164 28.8001 49.6264 29.1501 48.7664 29.1501C48.1064 29.1501 47.4964 28.9301 46.9364 28.4901C46.3964 28.0301 45.9864 27.4101 45.7064 26.6301C44.6664 28.3101 43.3564 29.1501 41.7764 29.1501ZM42.8564 26.1201C43.2964 26.1201 43.7164 25.86 44.1164 25.34C44.5164 24.82 44.8064 24.1301 44.9864 23.2701L46.0964 17.75C45.2564 17.77 44.4764 18.0901 43.7564 18.7101C43.0564 19.3101 42.4964 20.11 42.0764 21.1101C41.6564 22.1101 41.4464 23.1701 41.4464 24.2901C41.4464 24.9101 41.5664 25.37 41.8064 25.67C42.0664 25.97 42.4164 26.1201 42.8564 26.1201Z" fill="#3C78D8"/>
<path d="M69.2182 22.3101C69.4782 22.3101 69.6782 22.43 69.8182 22.67C69.9782 22.91 70.0582 23.2401 70.0582 23.6601C70.0582 24.4601 69.8682 25.08 69.4882 25.5201C68.6682 26.5201 67.7682 27.3801 66.7882 28.1C65.8082 28.8001 64.8382 29.1501 63.8782 29.1501C62.3582 29.1501 61.1982 28.2601 60.3982 26.4801C59.5582 27.5401 58.8182 28.2501 58.1782 28.6101C57.5582 28.9701 56.8282 29.1501 55.9882 29.1501C54.7682 29.1501 53.7582 28.7001 52.9582 27.8001C52.1782 26.8801 51.7882 25.6901 51.7882 24.2301C51.7882 22.6301 52.1282 21.1501 52.8082 19.7901C53.4882 18.4101 54.4182 17.2901 55.5982 16.43C56.7982 15.55 58.1382 15.0301 59.6182 14.8701C59.9982 10.9901 60.7182 7.68005 61.7782 4.94005C62.8582 2.18005 64.2682 0.800049 66.0082 0.800049C66.8682 0.800049 67.5782 1.19005 68.1382 1.97005C68.7182 2.75005 69.0082 3.93005 69.0082 5.51005C69.0082 7.75005 68.4582 10.37 67.3582 13.37C66.2582 16.37 64.7882 19.4501 62.9482 22.6101C63.0282 23.7701 63.1982 24.6001 63.4582 25.1C63.7382 25.6001 64.0882 25.85 64.5082 25.85C65.0482 25.85 65.5982 25.6101 66.1582 25.1301C66.7182 24.6501 67.4682 23.8501 68.4082 22.7301C68.6482 22.4501 68.9182 22.3101 69.2182 22.3101ZM65.6782 3.74005C65.2982 3.74005 64.9182 4.42005 64.5382 5.78005C64.1582 7.12005 63.8282 8.88005 63.5482 11.06C63.2882 13.24 63.0982 15.5201 62.9782 17.9001C65.2182 13.0201 66.3382 9.10005 66.3382 6.14005C66.3382 5.38005 66.2682 4.79005 66.1282 4.37005C66.0082 3.95005 65.8582 3.74005 65.6782 3.74005ZM57.0382 26.1201C57.4182 26.1201 57.7982 25.97 58.1782 25.67C58.5582 25.35 59.0382 24.7701 59.6182 23.93C59.4182 22.8501 59.3182 21.6401 59.3182 20.3001C59.3182 19.8201 59.3382 19.04 59.3782 17.96C58.2782 18.3 57.3582 19.04 56.6182 20.18C55.8982 21.3 55.5382 22.5501 55.5382 23.93C55.5382 25.3901 56.0382 26.1201 57.0382 26.1201Z" fill="#3C78D8"/>
<path d="M80.9977 22.3101C81.2577 22.3101 81.4577 22.43 81.5977 22.67C81.7577 22.91 81.8377 23.2401 81.8377 23.6601C81.8377 24.4601 81.6477 25.08 81.2677 25.5201C80.5277 26.4201 79.4777 27.25 78.1177 28.01C76.7777 28.77 75.3377 29.1501 73.7977 29.1501C71.6977 29.1501 70.0677 28.5801 68.9077 27.4401C67.7477 26.3001 67.1677 24.74 67.1677 22.76C67.1677 21.38 67.4577 20.1 68.0377 18.92C68.6177 17.72 69.4177 16.7701 70.4377 16.0701C71.4777 15.3701 72.6477 15.0201 73.9477 15.0201C75.1077 15.0201 76.0377 15.3701 76.7377 16.0701C77.4377 16.7501 77.7877 17.6801 77.7877 18.8601C77.7877 20.2401 77.2877 21.43 76.2877 22.43C75.3077 23.4101 73.6377 24.1901 71.2777 24.7701C71.7777 25.6901 72.7277 26.1501 74.1277 26.1501C75.0277 26.1501 76.0477 25.8401 77.1877 25.2201C78.3477 24.5801 79.3477 23.7501 80.1877 22.7301C80.4277 22.4501 80.6977 22.3101 80.9977 22.3101ZM73.4377 17.96C72.6977 17.96 72.0677 18.39 71.5477 19.25C71.0477 20.11 70.7977 21.1501 70.7977 22.3701V22.43C71.9777 22.15 72.9077 21.73 73.5877 21.17C74.2677 20.61 74.6077 19.9601 74.6077 19.2201C74.6077 18.8401 74.4977 18.5401 74.2777 18.3201C74.0777 18.0801 73.7977 17.96 73.4377 17.96Z" fill="#3C78D8"/>
<path d="M101.175 22.3101C101.435 22.3101 101.635 22.43 101.775 22.67C101.935 22.91 102.015 23.2401 102.015 23.6601C102.015 24.4401 101.825 25.06 101.445 25.5201C100.325 26.8601 99.235 27.8 98.175 28.34C97.135 28.88 95.875 29.1501 94.395 29.1501C93.355 29.1501 92.395 29.02 91.515 28.76C90.635 28.5 89.565 28.11 88.305 27.59C87.165 27.09 86.065 26.6801 85.005 26.3601C83.985 28.2201 82.455 29.1501 80.415 29.1501C79.295 29.1501 78.405 28.9001 77.745 28.4001C77.065 27.8801 76.725 27.22 76.725 26.42C76.725 25.44 77.195 24.63 78.135 23.99C79.075 23.33 80.325 23 81.885 23H82.275L82.815 14.2701C82.935 12.2701 83.295 10.6201 83.895 9.32005C84.495 8.02005 85.325 6.91005 86.385 5.99005C87.305 5.19005 88.355 4.59005 89.535 4.19005C90.715 3.77005 91.965 3.56005 93.285 3.56005C95.445 3.56005 97.105 4.12005 98.265 5.24005C99.425 6.36005 100.005 7.82005 100.005 9.62005C100.005 10.84 99.785 11.83 99.345 12.59C98.905 13.33 98.295 13.7 97.515 13.7C96.955 13.7 96.515 13.5701 96.195 13.3101C95.875 13.0301 95.715 12.64 95.715 12.14C95.715 11.96 95.755 11.63 95.835 11.15C95.955 10.59 96.015 10.09 96.015 9.65005C96.015 8.81005 95.765 8.15005 95.265 7.67005C94.785 7.17005 94.045 6.92005 93.045 6.92005C91.285 6.92005 89.925 7.50005 88.965 8.66005C88.005 9.80005 87.395 11.6 87.135 14.0601L86.445 20.8701C86.345 21.8301 86.215 22.6601 86.055 23.3601C87.335 23.5801 88.935 23.93 90.855 24.41C91.975 24.69 92.835 24.89 93.435 25.01C94.035 25.13 94.565 25.1901 95.025 25.1901C96.185 25.1901 97.175 25.0001 97.995 24.6201C98.835 24.2201 99.625 23.5901 100.365 22.7301C100.605 22.4501 100.875 22.3101 101.175 22.3101Z" fill="#3C78D8"/>
<path d="M103.271 29.1501C102.031 29.1501 101.041 28.7001 100.301 27.8001C99.5605 26.9001 99.1905 25.72 99.1905 24.26C99.1905 22.66 99.5605 21.15 100.301 19.73C101.041 18.29 102.021 17.1401 103.241 16.2801C104.481 15.4001 105.791 14.96 107.171 14.96C107.611 14.96 107.901 15.0501 108.041 15.2301C108.201 15.39 108.331 15.69 108.431 16.13C108.851 16.05 109.291 16.01 109.751 16.01C110.731 16.01 111.221 16.36 111.221 17.06C111.221 17.48 111.071 18.4801 110.771 20.0601C110.311 22.3601 110.081 23.9601 110.081 24.8601C110.081 25.1601 110.151 25.4 110.291 25.58C110.451 25.76 110.651 25.85 110.891 25.85C111.271 25.85 111.731 25.6101 112.271 25.1301C112.811 24.6301 113.541 23.8301 114.461 22.7301C114.701 22.4501 114.971 22.3101 115.271 22.3101C115.531 22.3101 115.731 22.43 115.871 22.67C116.031 22.91 116.111 23.2401 116.111 23.6601C116.111 24.4601 115.921 25.08 115.541 25.5201C114.721 26.5401 113.851 27.4 112.931 28.1C112.011 28.8001 111.121 29.1501 110.261 29.1501C109.601 29.1501 108.991 28.9301 108.431 28.4901C107.891 28.0301 107.481 27.4101 107.201 26.6301C106.161 28.3101 104.851 29.1501 103.271 29.1501ZM104.351 26.1201C104.791 26.1201 105.211 25.86 105.611 25.34C106.011 24.82 106.301 24.1301 106.481 23.2701L107.591 17.75C106.751 17.77 105.971 18.0901 105.251 18.7101C104.551 19.3101 103.991 20.11 103.571 21.1101C103.151 22.1101 102.941 23.1701 102.941 24.2901C102.941 24.9101 103.061 25.37 103.301 25.67C103.561 25.97 103.911 26.1201 104.351 26.1201Z" fill="#3C78D8"/>
<path d="M115.802 29.1501C115.042 29.1501 114.502 28.7501 114.182 27.9501C113.882 27.1501 113.732 25.8701 113.732 24.1101C113.732 21.5101 114.102 19.04 114.842 16.7C115.022 16.12 115.312 15.7001 115.712 15.4401C116.132 15.1601 116.712 15.0201 117.452 15.0201C117.852 15.0201 118.132 15.07 118.292 15.17C118.452 15.27 118.532 15.46 118.532 15.74C118.532 16.06 118.382 16.7801 118.082 17.9001C117.882 18.7001 117.722 19.4 117.602 20C117.482 20.6 117.382 21.3401 117.302 22.2201C117.962 20.5001 118.702 19.1001 119.522 18.0201C120.342 16.9401 121.142 16.17 121.922 15.71C122.722 15.25 123.452 15.0201 124.112 15.0201C125.412 15.0201 126.062 15.6701 126.062 16.9701C126.062 17.7501 125.842 19.1601 125.402 21.2001C125.022 22.9401 124.832 24.0901 124.832 24.6501C124.832 25.4501 125.122 25.85 125.702 25.85C126.102 25.85 126.572 25.6101 127.112 25.1301C127.672 24.6301 128.412 23.8301 129.332 22.7301C129.572 22.4501 129.842 22.3101 130.142 22.3101C130.402 22.3101 130.602 22.43 130.742 22.67C130.902 22.91 130.982 23.2401 130.982 23.6601C130.982 24.4601 130.792 25.08 130.412 25.5201C129.552 26.5801 128.622 27.4501 127.622 28.1301C126.642 28.8101 125.522 29.1501 124.262 29.1501C123.242 29.1501 122.472 28.8601 121.952 28.2801C121.432 27.6801 121.172 26.8201 121.172 25.7001C121.172 25.1401 121.312 24.1401 121.592 22.7001C121.852 21.4401 121.982 20.5701 121.982 20.09C121.982 19.77 121.872 19.6101 121.652 19.6101C121.392 19.6101 121.022 19.9501 120.542 20.6301C120.082 21.2901 119.602 22.1701 119.102 23.2701C118.622 24.3701 118.232 25.53 117.932 26.75C117.712 27.69 117.452 28.33 117.152 28.67C116.872 28.99 116.422 29.1501 115.802 29.1501Z" fill="#3C78D8"/>
<path d="M139.475 22.3101C139.695 23.9501 140.015 25.57 140.435 27.17C140.515 27.43 140.555 27.7001 140.555 27.9801C140.555 28.8801 140.005 29.3301 138.905 29.3301C138.285 29.3301 137.805 29.1601 137.465 28.8201C137.145 28.4801 136.845 27.8401 136.565 26.9001L136.535 26.7801C135.775 27.7201 135.085 28.35 134.465 28.67C133.865 28.99 133.165 29.1501 132.365 29.1501C131.145 29.1501 130.135 28.7001 129.335 27.8001C128.555 26.8801 128.165 25.6901 128.165 24.2301C128.165 22.6301 128.505 21.1501 129.185 19.7901C129.865 18.4301 130.795 17.3201 131.975 16.4601C133.155 15.5801 134.475 15.0501 135.935 14.8701C136.315 11.0901 137.035 7.80005 138.095 5.00005C139.175 2.20005 140.605 0.800049 142.385 0.800049C143.245 0.800049 143.955 1.19005 144.515 1.97005C145.095 2.75005 145.385 3.93005 145.385 5.51005C145.385 7.71005 144.845 10.28 143.765 13.22C142.685 16.1601 141.255 19.1901 139.475 22.3101ZM142.055 3.74005C141.475 3.74005 140.925 5.22005 140.405 8.18005C139.905 11.1401 139.565 14.36 139.385 17.84C141.605 13.04 142.715 9.14005 142.715 6.14005C142.715 5.38005 142.645 4.79005 142.505 4.37005C142.385 3.95005 142.235 3.74005 142.055 3.74005ZM133.415 26.1201C133.815 26.1201 134.195 25.97 134.555 25.67C134.935 25.37 135.415 24.7901 135.995 23.93C135.795 22.47 135.695 20.96 135.695 19.4C135.695 18.78 135.705 18.3 135.725 17.96C134.625 18.28 133.715 19.01 132.995 20.15C132.275 21.29 131.915 22.5501 131.915 23.93C131.915 25.3901 132.415 26.1201 133.415 26.1201Z" fill="#3C78D8"/>
</svg>
